<?xml version="1.0" standalone="no"?>
<!DOCTYPE svg PUBLIC "-//W3C//DTD SVG 20010904//EN"
 "http://www.w3.org/TR/2001/REC-SVG-20010904/DTD/svg10.dtd">
<svg version="1.0" xmlns="http://www.w3.org/2000/svg"
 width="512.000000pt" height="512.000000pt" viewBox="0 0 512.000000 512.000000"
 preserveAspectRatio="xMidYMid meet">

<g transform="translate(0.000000,512.000000) scale(0.100000,-0.100000)"
fill="#000000" stroke="none">
<path d="M110 4755 l0 -275 275 0 275 0 0 275 0 275 -275 0 -275 0 0 -275z"/>
<path d="M4460 4755 l0 -275 275 0 275 0 0 275 0 275 -275 0 -275 0 0 -275z"/>
<path d="M935 4805 c-30 -30 -32 -64 -4 -99 l20 -26 1609 0 1609 0 20 26 c28
35 26 69 -4 99 l-24 25 -1601 0 -1601 0 -24 -25z"/>
<path d="M2480 4277 c-19 -6 -55 -32 -79 -57 -42 -42 -86 -143 -699 -1575
-612 -1432 -654 -1533 -654 -1587 0 -158 161 -269 309 -213 93 36 100 48 322
568 l204 477 677 0 677 0 204 -477 c146 -342 213 -486 235 -510 115 -122 321
-82 380 73 37 97 63 30 -641 1674 -356 833 -659 1530 -672 1548 -42 56 -94 84
-165 88 -35 2 -79 -2 -98 -9z m322 -1369 l236 -553 -239 -3 c-131 -1 -347 -1
-478 0 l-239 3 236 553 c130 303 239 552 242 552 3 0 112 -249 242 -552z"/>
<path d="M336 4189 l-26 -20 0 -1609 0 -1609 26 -20 c35 -28 69 -26 99 4 l25
24 0 1601 0 1601 -25 24 c-30 30 -64 32 -99 4z"/>
<path d="M4685 4185 l-25 -24 0 -1601 0 -1601 25 -24 c31 -32 74 -33 103 -2
l22 23 0 1606 0 1607 -26 20 c-35 28 -69 26 -99 -4z"/>
<path d="M110 365 l0 -275 275 0 275 0 0 275 0 275 -275 0 -275 0 0 -275z"/>
<path d="M4460 365 l0 -275 275 0 275 0 0 275 0 275 -275 0 -275 0 0 -275z"/>
<path d="M932 417 c-29 -31 -28 -72 3 -102 l24 -25 1601 0 1601 0 24 25 c32
31 33 74 2 103 l-23 22 -1605 0 -1606 0 -21 -23z"/>
</g>
</svg>
