<?xml version="1.0" standalone="no"?>
<!DOCTYPE svg PUBLIC "-//W3C//DTD SVG 20010904//EN"
 "http://www.w3.org/TR/2001/REC-SVG-20010904/DTD/svg10.dtd">
<svg version="1.0" xmlns="http://www.w3.org/2000/svg"
 width="512.000000pt" height="512.000000pt" viewBox="0 0 512.000000 512.000000"
 preserveAspectRatio="xMidYMid meet">

<g transform="translate(0.000000,512.000000) scale(0.100000,-0.100000)"
fill="#000000" stroke="none">
<path d="M965 3609 c-11 -6 -168 -251 -349 -545 -350 -569 -354 -577 -305
-616 19 -16 51 -18 355 -18 l334 0 0 -320 c0 -256 3 -328 14 -355 16 -37 48
-52 92 -41 53 14 54 25 54 629 0 366 -4 564 -11 585 -14 41 -61 61 -98 41 -45
-25 -51 -51 -51 -226 l0 -163 -250 0 c-250 0 -251 0 -240 21 6 11 135 221 287
467 192 311 276 456 276 476 0 20 -9 37 -27 53 -29 25 -49 28 -81 12z"/>
<path d="M4645 3609 c-11 -6 -168 -251 -349 -545 -350 -569 -354 -577 -305
-616 19 -16 51 -18 355 -18 l334 0 0 -320 c0 -256 3 -328 14 -355 16 -37 48
-52 92 -41 53 14 54 25 54 629 0 366 -4 564 -11 585 -14 41 -61 61 -98 41 -45
-25 -51 -51 -51 -226 l0 -163 -250 0 c-250 0 -251 0 -240 21 6 11 135 221 287
467 192 311 276 456 276 476 0 20 -9 37 -27 53 -29 25 -49 28 -81 12z"/>
</g>
</svg>
