<?xml version="1.0" standalone="no"?>
<!DOCTYPE svg PUBLIC "-//W3C//DTD SVG 20010904//EN"
 "http://www.w3.org/TR/2001/REC-SVG-20010904/DTD/svg10.dtd">
<svg version="1.0" xmlns="http://www.w3.org/2000/svg"
 width="512.000000pt" height="512.000000pt" viewBox="0 0 512.000000 512.000000"
 preserveAspectRatio="xMidYMid meet">

<g transform="translate(0.000000,512.000000) scale(0.100000,-0.100000)"
fill="#000000" stroke="none">
<path d="M2495 4421 c-46 -21 -79 -54 -94 -94 -8 -19 -11 -312 -11 -916 l0
-888 23 -43 c27 -51 90 -90 147 -90 57 0 120 39 147 90 l23 43 0 888 c0 604
-3 897 -11 916 -21 57 -100 113 -159 113 -14 0 -43 -9 -65 -19z"/>
<path d="M1640 3824 c-50 -21 -171 -115 -263 -203 -427 -408 -611 -1019 -481
-1601 136 -610 596 -1097 1199 -1269 175 -49 230 -56 465 -56 198 0 238 3 335
24 520 111 946 432 1179 891 311 609 238 1327 -187 1855 -114 141 -320 322
-410 360 -95 39 -193 -8 -227 -110 -26 -79 6 -139 122 -226 174 -131 304 -286
401 -476 103 -203 148 -388 148 -618 0 -231 -40 -404 -141 -610 -72 -146 -158
-262 -282 -381 -187 -178 -410 -295 -671 -351 -116 -25 -418 -25 -534 0 -259
56 -491 177 -675 355 -212 204 -342 443 -400 736 -25 128 -27 351 -4 479 59
324 232 621 476 817 138 111 166 140 181 188 9 33 10 51 0 82 -31 105 -134
156 -231 114z"/>
</g>
</svg>
