<?xml version="1.0" standalone="no"?>
<!DOCTYPE svg PUBLIC "-//W3C//DTD SVG 20010904//EN"
 "http://www.w3.org/TR/2001/REC-SVG-20010904/DTD/svg10.dtd">
<svg version="1.0" xmlns="http://www.w3.org/2000/svg"
 width="512.000000pt" height="512.000000pt" viewBox="0 0 512.000000 512.000000"
 preserveAspectRatio="xMidYMid meet">

<g transform="translate(0.000000,512.000000) scale(0.100000,-0.100000)"
fill="#000000" stroke="none">
<path d="M470 4154 c-222 -58 -409 -251 -455 -470 -21 -101 -21 -1097 0 -1198
47 -221 235 -414 460 -471 51 -13 183 -15 912 -15 469 0 853 -2 853 -5 0 -2
38 -222 85 -487 63 -360 89 -489 103 -508 27 -36 75 -47 116 -27 29 13 50 44
132 194 54 98 99 180 101 182 2 3 95 -86 206 -197 270 -268 226 -267 484 -9
185 185 193 194 193 232 0 37 -8 47 -202 242 -126 126 -199 206 -193 212 6 5
77 46 158 90 l148 81 507 0 c564 0 565 0 702 67 100 49 221 169 268 265 69
141 66 107 69 719 4 624 3 642 -64 778 -53 107 -170 224 -273 274 -143 70
-102 67 -1043 67 l-848 0 -24 -24 c-32 -32 -40 -69 -25 -107 28 -68 -26 -63
915 -69 l851 -5 76 -38 c117 -58 190 -147 223 -274 22 -86 22 -1051 0 -1138
-32 -123 -115 -221 -235 -279 l-65 -31 -535 -3 -535 -3 -629 110 c-580 102
-631 109 -661 97 -53 -23 -65 -57 -51 -154 l8 -52 -844 2 -843 3 -65 31 c-81
39 -145 96 -187 165 -61 103 -63 119 -63 684 0 545 2 571 51 667 33 65 120
145 196 181 l68 32 788 5 789 5 29 33 c40 44 40 93 0 133 l-29 29 -784 -1
c-649 0 -792 -3 -838 -15z m2356 -2034 c218 -38 399 -71 401 -74 3 -2 -43 -30
-101 -61 -58 -31 -113 -66 -121 -78 -8 -12 -15 -39 -15 -61 0 -39 7 -47 215
-256 l215 -215 -95 -95 -95 -95 -218 218 c-178 177 -223 217 -246 217 -51 0
-83 -26 -127 -107 -56 -104 -81 -145 -85 -141 -2 3 -144 800 -144 813 0 8 10
7 416 -65z"/>
<path d="M2443 4155 c-13 -9 -28 -33 -34 -54 -9 -31 -8 -43 6 -70 19 -38 73
-64 110 -55 38 9 75 59 75 101 0 73 -96 121 -157 78z"/>
<path d="M4180 3502 l-30 -30 0 -342 0 -342 29 -29 c32 -31 71 -38 115 -18 40
18 56 66 56 163 l0 86 48 0 c27 0 72 7 102 16 101 30 190 149 190 254 0 56
-31 132 -73 177 -71 77 -101 87 -264 91 l-143 4 -30 -30z m285 -197 c14 -13
25 -33 25 -45 0 -38 -44 -70 -95 -70 l-45 0 0 70 0 70 45 0 c35 0 52 -6 70
-25z"/>
<path d="M3440 3502 c-59 -29 -61 -39 -58 -322 l3 -255 29 -53 c100 -179 356
-212 503 -65 75 75 78 86 81 376 4 289 2 295 -65 323 -31 14 -38 13 -71 -3
-59 -29 -62 -42 -62 -300 l0 -231 -31 -26 c-55 -47 -111 -46 -161 2 l-28 26 0
236 c0 262 -2 269 -66 296 -41 17 -32 17 -74 -4z"/>
<path d="M595 3478 c-140 -52 -201 -192 -139 -316 30 -61 56 -81 156 -122 186
-78 199 -88 153 -127 -46 -40 -124 -26 -194 33 -74 62 -171 25 -171 -66 0 -99
181 -201 333 -187 200 18 314 206 221 364 -34 59 -84 93 -209 143 -58 23 -108
46 -111 52 -12 20 19 38 65 38 31 -1 63 -10 101 -30 62 -34 79 -36 119 -16 51
27 67 103 31 149 -12 14 -50 41 -87 59 -56 27 -78 32 -152 35 -47 1 -99 -3
-116 -9z"/>
<path d="M1163 3472 c-13 -9 -27 -33 -33 -52 -6 -20 -10 -164 -10 -333 0 -323
4 -349 54 -382 36 -24 94 -14 124 20 22 26 22 28 22 368 l0 341 -27 28 c-32
33 -94 38 -130 10z"/>
<path d="M1759 3476 c-116 -44 -195 -115 -243 -216 -29 -60 -31 -73 -31 -170
1 -94 3 -111 28 -162 65 -133 193 -223 333 -235 196 -16 351 110 386 314 14
85 5 136 -29 163 -23 18 -40 20 -154 20 -118 0 -130 -2 -154 -23 -17 -14 -28
-36 -32 -63 -4 -36 -1 -46 24 -74 24 -27 38 -33 81 -38 29 -2 52 -7 52 -10 0
-3 -11 -20 -25 -38 -70 -91 -238 -58 -294 58 -43 90 -19 186 62 252 31 25 49
31 101 34 53 3 72 0 120 -23 40 -19 65 -25 84 -20 65 16 98 86 67 145 -12 23
-35 40 -83 63 -59 28 -79 32 -162 34 -61 2 -108 -2 -131 -11z"/>
<path d="M2393 3466 l-28 -24 -3 -333 c-3 -361 -1 -379 49 -404 34 -18 60 -19
94 -3 47 21 55 53 55 219 l0 152 120 -174 c66 -95 130 -179 143 -186 52 -29
119 -9 146 44 7 15 11 125 11 338 0 336 -3 360 -49 385 -39 20 -91 12 -122
-19 l-29 -29 0 -163 0 -162 -125 181 c-69 100 -134 186 -145 192 -34 18 -87
12 -117 -14z"/>
</g>
</svg>
