<?xml version="1.0" standalone="no"?>
<!DOCTYPE svg PUBLIC "-//W3C//DTD SVG 20010904//EN"
 "http://www.w3.org/TR/2001/REC-SVG-20010904/DTD/svg10.dtd">
<svg version="1.0" xmlns="http://www.w3.org/2000/svg"
 width="512.000000pt" height="512.000000pt" viewBox="0 0 512.000000 512.000000"
 preserveAspectRatio="xMidYMid meet">

<g transform="translate(0.000000,512.000000) scale(0.100000,-0.100000)"
fill="#000000" stroke="none">
<path d="M4095 4626 c-16 -8 -114 -99 -217 -202 -157 -159 -187 -195 -193
-226 -11 -61 3 -108 44 -149 66 -66 153 -65 226 2 l44 41 3 -260 c3 -246 4
-262 24 -289 73 -98 195 -98 268 0 20 27 21 45 26 288 l5 260 30 -31 c42 -44
76 -60 132 -60 90 0 153 63 153 153 0 26 -6 60 -14 75 -22 41 -377 390 -409
402 -38 14 -86 12 -122 -4z"/>
<path d="M1045 4415 c-221 -48 -407 -197 -500 -400 -69 -148 -65 -68 -65
-1455 0 -1387 -4 -1307 65 -1455 86 -187 251 -327 460 -392 57 -17 130 -18
1550 -18 1389 0 1494 1 1553 18 202 55 373 197 462 382 73 152 71 129 68 977
-3 750 -3 757 -24 785 -73 98 -195 98 -268 0 -20 -27 -21 -43 -24 -290 l-3
-261 -447 447 c-399 398 -454 449 -510 476 -107 50 -219 50 -329 0 -38 -18
-160 -134 -580 -553 l-533 -530 -103 102 c-138 135 -183 157 -322 157 -159 0
-165 -4 -452 -289 l-243 -240 0 909 c0 571 4 933 10 973 29 179 115 281 275
328 55 16 140 18 1012 23 939 6 952 6 980 27 44 32 76 105 68 155 -9 53 -64
115 -113 129 -60 16 -1911 12 -1987 -5z m2723 -2007 l553 -553 -4 -255 c-3
-229 -6 -262 -26 -322 -51 -157 -158 -235 -355 -259 -51 -6 -585 -9 -1436 -7
-1478 4 -1387 0 -1505 61 -108 55 -174 169 -187 320 -2 37 1 41 332 372 209
209 342 335 354 335 11 0 74 -53 150 -128 153 -150 185 -168 294 -160 37 3 83
13 102 23 19 9 285 266 590 571 306 305 562 554 570 554 8 0 264 -249 568
-552z"/>
<path d="M1647 3460 c-77 -20 -141 -71 -180 -144 -30 -58 -30 -174 0 -231 28
-54 100 -119 149 -136 67 -22 146 -16 211 17 236 121 167 471 -99 499 -23 2
-60 0 -81 -5z"/>
</g>
</svg>
