<?xml version="1.0" standalone="no"?>
<!DOCTYPE svg PUBLIC "-//W3C//DTD SVG 20010904//EN"
 "http://www.w3.org/TR/2001/REC-SVG-20010904/DTD/svg10.dtd">
<svg version="1.0" xmlns="http://www.w3.org/2000/svg"
 width="512.000000pt" height="512.000000pt" viewBox="0 0 512.000000 512.000000"
 preserveAspectRatio="xMidYMid meet">

<g transform="translate(0.000000,512.000000) scale(0.100000,-0.100000)"
fill="#000000" stroke="none">
<path d="M25 4655 l-25 -24 0 -2076 0 -2076 25 -24 24 -25 2511 0 2511 0 24
25 25 24 0 2076 0 2076 -25 24 -24 25 -2064 0 -2064 0 -27 -21 c-36 -28 -36
-80 0 -108 l27 -21 2013 0 2014 0 0 -1975 0 -1975 -2410 0 -2410 0 0 1975 0
1975 254 0 c282 0 289 2 302 67 5 26 1 37 -19 57 l-26 26 -306 0 -306 0 -24
-25z"/>
<path d="M325 4355 l-25 -24 0 -1776 0 -1776 25 -24 24 -25 1754 0 1754 0 27
21 c36 28 36 80 0 108 l-27 21 -1528 0 c-841 0 -1529 2 -1529 5 0 2 14 129 30
282 17 152 30 281 30 285 0 4 765 8 1700 8 935 0 1700 -4 1700 -8 0 -4 13
-133 30 -285 16 -153 30 -280 30 -282 0 -3 -40 -5 -89 -5 -74 0 -92 -3 -115
-21 -36 -28 -36 -80 0 -108 26 -20 38 -21 341 -21 l314 0 24 25 25 24 0 1776
0 1776 -25 24 -24 25 -2211 0 -2211 0 -24 -25z m345 -133 c0 -5 -18 -220 -40
-478 -49 -570 -48 -566 -14 -593 34 -27 57 -26 90 2 l27 23 43 510 c24 280 44
517 44 527 0 15 11 17 96 17 l95 0 -6 -42 c-6 -48 -355 -3286 -355 -3300 0 -4
-45 -8 -100 -8 l-100 0 0 1675 0 1675 110 0 c61 0 110 -4 110 -8z m3294 -39
c4 -27 58 -529 121 -1118 63 -588 117 -1089 120 -1112 l6 -43 -123 0 -123 0
-290 407 c-159 224 -302 416 -317 426 -14 11 -49 22 -75 24 -91 9 -108 -7
-288 -261 -88 -124 -162 -225 -166 -226 -3 0 -137 182 -298 405 -241 333 -300
409 -332 425 -69 35 -148 21 -200 -36 -14 -16 -120 -159 -234 -318 -219 -304
-229 -323 -190 -366 14 -16 29 -20 59 -18 l41 3 217 300 c119 165 223 301 230
302 12 2 783 -1055 775 -1063 -2 -2 -353 -3 -779 -2 l-776 3 86 118 c92 128
103 161 64 199 -19 20 -69 27 -91 14 -5 -3 -62 -80 -127 -171 l-119 -164 -123
-1 -123 0 6 43 c3 23 57 524 120 1112 63 589 117 1091 121 1118 l6 47 1398 0
1398 0 6 -47z m336 30 c0 -10 20 -247 44 -527 l43 -510 27 -23 c33 -28 56 -29
90 -2 34 27 35 22 -14 593 -22 258 -40 473 -40 478 0 4 50 8 110 8 l110 0 0
-1675 0 -1675 -100 0 c-55 0 -100 4 -100 8 0 14 -349 3252 -355 3300 l-6 42
95 0 c85 0 96 -2 96 -17z m-819 -1880 c112 -158 226 -318 252 -355 l48 -68
-345 0 -345 0 -83 116 c-46 64 -82 120 -81 125 2 7 251 358 310 437 13 17 28
32 32 32 4 0 100 -129 212 -287z m749 -595 c0 -13 3 -47 6 -75 l7 -53 -1683 0
-1683 0 7 53 c3 28 6 62 6 75 l0 22 1670 0 1670 0 0 -22z"/>
<path d="M2864 3764 c-60 -21 -119 -77 -151 -142 -53 -107 -33 -232 51 -320
105 -112 290 -114 401 -4 108 108 113 279 11 390 -78 85 -202 115 -312 76z
m167 -149 c120 -63 70 -250 -66 -247 -54 0 -102 31 -121 78 -18 44 -18 68 3
111 31 66 116 93 184 58z"/>
<path d="M939 1331 c-34 -35 -36 -59 -8 -95 l20 -26 203 0 c199 0 203 0 224
23 36 38 28 88 -19 112 -21 12 -70 15 -209 15 l-182 0 -29 -29z"/>
<path d="M3575 1295 c-32 -31 -33 -74 -2 -103 22 -21 32 -22 216 -22 116 0
200 4 212 11 48 25 44 105 -7 128 -16 7 -94 11 -210 11 -183 0 -185 0 -209
-25z"/>
<path d="M1800 1120 c-25 -25 -26 -71 -1 -101 l19 -24 662 0 662 0 19 24 c25
30 24 72 -1 99 l-21 22 -659 0 c-647 0 -660 0 -680 -20z"/>
</g>
</svg>
